<?xml version="1.0" standalone="no"?>
<!DOCTYPE svg PUBLIC "-//W3C//DTD SVG 20010904//EN"
 "http://www.w3.org/TR/2001/REC-SVG-20010904/DTD/svg10.dtd">
<svg version="1.0" xmlns="http://www.w3.org/2000/svg"
 width="2153.000000pt" height="2153.000000pt" viewBox="0 0 2153.000000 2153.000000"
 preserveAspectRatio="xMidYMid meet">
<metadata>
Created by potrace 1.11, written by Peter Selinger 2001-2013
</metadata>
<g transform="translate(0.000000,2153.000000) scale(0.100000,-0.100000)"
fill="#000000" stroke="none">
<path d="M10665 17543 c-110 -21 -211 -66 -276 -121 -48 -41 -94 -107 -116
-164 -15 -39 -16 -546 -19 -5898 -2 -4223 -6 -5872 -14 -5918 -17 -100 -64
-187 -139 -263 -112 -110 -212 -152 -366 -152 -207 1 -384 118 -465 308 -19
45 -24 63 -36 135 -3 19 -7 2371 -8 5225 -3 4902 -4 5193 -21 5239 -56 159
-205 275 -390 304 -52 8 -182 8 -220 0 -57 -12 -130 -40 -178 -69 -26 -16 -50
-29 -54 -29 -4 0 -28 -23 -55 -51 -54 -57 -94 -133 -106 -199 -10 -55 -8
-10478 1 -10535 4 -23 9 -52 12 -65 3 -14 10 -52 16 -85 16 -87 71 -247 120
-345 76 -155 168 -282 293 -405 115 -113 129 -125 244 -199 199 -131 429 -217
652 -243 123 -14 374 -8 475 12 251 50 447 138 652 291 40 30 75 59 78 64 10
15 17 12 60 -26 118 -105 338 -226 507 -279 172 -54 276 -70 468 -69 175 0
234 6 365 38 211 52 381 133 560 267 329 246 549 626 599 1032 9 80 12 1220
10 5320 -1 2869 -5 5234 -9 5254 -17 93 -104 208 -202 269 -45 28 -150 63
-213 71 -122 16 -238 -2 -347 -52 -43 -20 -166 -141 -188 -185 -46 -90 -44
172 -44 -5334 0 -3536 -4 -5218 -11 -5255 -30 -160 -161 -315 -313 -373 -306
-116 -644 80 -692 403 -4 25 -8 2668 -11 5875 -2 3206 -6 5844 -9 5863 -7 50
-50 132 -93 177 -103 110 -222 159 -402 167 -52 2 -104 2 -115 0z"/>
<path d="M6570 14878 c-187 -33 -330 -163 -396 -358 -18 -53 -18 -195 -19
-4090 0 -2350 3 -4054 8 -4080 25 -123 117 -258 222 -325 113 -73 284 -100
410 -65 184 50 326 197 369 383 10 43 12 892 11 4073 0 2210 -4 4033 -9 4049
-47 179 -136 299 -275 370 -85 43 -221 62 -321 43z"/>
<path d="M14780 14887 c-3 -3 -17 -8 -30 -11 -195 -39 -350 -211 -385 -426 -5
-25 -9 -1847 -10 -4048 -3 -4322 -6 -4061 47 -4172 32 -66 66 -110 124 -161
51 -44 143 -95 187 -105 152 -34 263 -21 390 44 124 64 207 168 248 310 18 65
19 155 18 4097 0 4349 3 4068 -51 4183 -12 26 -21 50 -20 53 0 4 -24 34 -54
68 -61 66 -146 120 -234 145 -56 17 -221 33 -230 23z"/>
<path d="M16777 13596 c-172 -50 -300 -181 -353 -361 -16 -56 -17 -222 -17
-2830 0 -2747 0 -2771 20 -2831 56 -169 215 -312 382 -342 256 -46 493 89 578
329 l26 74 2 2755 c1 2341 -1 2765 -13 2820 -38 174 -176 322 -351 376 -69 21
-216 26 -274 10z"/>
<path d="M4579 13566 c-2 -2 -27 -6 -56 -9 -60 -6 -123 -32 -190 -78 -57 -39
-130 -113 -138 -140 -4 -10 -10 -19 -15 -19 -12 0 -61 -128 -68 -180 -3 -25
-6 -1260 -6 -2745 l0 -2700 23 -70 c54 -165 160 -274 326 -333 52 -18 86 -23
160 -23 249 0 446 159 501 405 8 35 8 5407 0 5461 -34 235 -225 412 -463 430
-38 3 -71 3 -74 1z"/>
<path d="M2465 12260 c-76 -16 -155 -52 -212 -95 -66 -50 -99 -89 -142 -168
-60 -112 -58 -59 -57 -1607 l2 -1415 24 -65 c64 -175 182 -283 360 -327 131
-32 238 -21 355 37 146 73 237 187 268 338 9 45 12 399 11 1478 l-1 1419 -22
62 c-29 86 -56 129 -115 191 -64 66 -123 104 -205 132 -72 24 -203 34 -266 20z"/>
<path d="M18830 12250 c-179 -55 -307 -190 -350 -369 -10 -42 -13 -351 -13
-1432 0 -759 -4 -1382 -8 -1385 -5 -3 -6 -22 -3 -42 25 -180 103 -303 248
-390 174 -106 445 -82 595 53 53 48 117 144 143 215 l23 65 2 1425 c2 1140 0
1437 -11 1485 -28 130 -135 279 -239 331 -92 47 -129 56 -232 59 -71 2 -116
-3 -155 -15z"/>
<path d="M487 10914 c-1 -1 -24 -4 -52 -7 -202 -22 -368 -171 -421 -378 -17
-66 -14 -189 5 -257 27 -92 134 -238 204 -278 113 -65 162 -79 277 -78 169 1
279 45 385 152 134 135 174 331 106 518 -59 164 -215 293 -386 319 -47 7 -114
12 -118 9z"/>
<path d="M20875 10902 c-277 -83 -435 -381 -343 -648 75 -217 264 -346 496
-340 191 5 351 102 434 264 44 83 60 148 59 234 -2 222 -133 405 -340 477 -90
31 -227 37 -306 13z"/>
</g>
</svg>
