<svg xmlns="http://www.w3.org/2000/svg" xmlns:xlink="http://www.w3.org/1999/xlink" viewBox="0 0 2153.27 1356.03"><defs><style>.cls-1{fill:url(#linear-gradient);}</style><linearGradient id="linear-gradient" x1="4404.13" y1="4256.32" x2="6336.23" y2="4263.15" gradientTransform="matrix(0.27, 0, 0, -0.27, -353.31, 1812.56)" gradientUnits="userSpaceOnUse"><stop offset="0" stop-color="#ff4365"/><stop offset="0.49" stop-color="#fe6c79"/><stop offset="1" stop-color="#fea595"/></linearGradient></defs><g id="Layer_2" data-name="Layer 2"><g id="Layer_1-2" data-name="Layer 1"><path class="cls-1" d="M1074.85,0V.08h-1.13c-1.17.05-2.35.13-3.48.25v0h-.32l-2.13.25v0h-.1c-1.08.16-2.12.33-3.17.53v0h-.1c-.42.05-.83.17-1.26.24v0h-.07c-1.06.23-2.13.52-3.16.79v0h-.13c-.32.11-.64.18-1,.3h0a5,5,0,0,0-.8.23v0h-.1c-.8.26-1.58.5-2.34.78v0h-.1c-.26.11-.48.17-.72.28h0l-1.34.52v0h-.07a54.4,54.4,0,0,0-8.07,4.07h0c-.82.51-1.64,1-2.4,1.58v0h-.08l-.76.53v0h0l-1.08.79v0h0c-.43.36-.89.7-1.31,1.06v0h-.07c-.63.52-1.25,1.08-1.85,1.62a1.47,1.47,0,0,0-.25.25v0h0c-.55.53-1.08,1-1.6,1.57v.06h0l-.23.23v0h0l-.21.26v0h0l-.27.28c-.55.62-1.09,1.23-1.6,1.87v0h0c-.28.31-.53.66-.8,1v.07h0c-.64.85-1.26,1.74-1.84,2.64v.08h0c-.18.28-.32.53-.51.8a36,36,0,0,0-2.44,4.84v.07h0c-.17.44-.36.88-.53,1.33a7.94,7.94,0,0,1-.28.77v.06c-.1.27-.16.55-.24.8-.32,1.05-.6,2.12-.83,3.22v.33h-.06c-.06.4-.13.81-.19,1.24v.11h0c-.12.78-.2,1.53-.25,2.3v.95h-.06c0,.5,0,1,0,1.5V906.8h-.3v294.8a51.14,51.14,0,1,1-102.28,0V906.8h-.3V173.12a30.28,30.28,0,0,0-.26-4.16v-.05a15.16,15.16,0,0,0-.22-1.59h-.06V167c-.07-.43-.14-.88-.25-1.34h0v-.09c-.15-.7-.33-1.39-.51-2.06h-.06v-.12c-.16-.6-.35-1.17-.53-1.78s-.51-1.44-.81-2.16h0v-.06c-.25-.63-.52-1.25-.8-1.85v0c-.08-.18-.19-.36-.26-.52h0v-.06c-.18-.36-.36-.7-.52-1.06h0c-.34-.63-.67-1.27-1.06-1.88h0v-.06c-.42-.72-.87-1.44-1.36-2.12-.23-.36-.49-.73-.76-1.08h-.06v-.07c-.59-.8-1.23-1.6-1.87-2.37h0v-.06a46.1,46.1,0,0,0-6.74-6.49h0v-.05c-.34-.27-.68-.53-1-.77h-.08v0c-.86-.65-1.76-1.25-2.65-1.85h0v0c-.28-.17-.52-.36-.8-.5h0v0c-.47-.27-.89-.55-1.33-.8h0v0a51.88,51.88,0,0,0-5.92-3h0v0c-.42-.19-.86-.36-1.28-.52h-.1v0c-.44-.16-.89-.35-1.33-.5h0c-.5-.16-1-.35-1.52-.52h-.12v0l-.72-.22h-.11v0a7.83,7.83,0,0,1-.78-.25h0c-1-.3-2-.55-3-.8h0l-1.14-.28h-.23v-.07c-.35,0-.73-.13-1.08-.21h0c-1-.21-2.1-.41-3.18-.54h-.38v-.07l-1.79-.22h-.1c-1.15-.12-2.31-.21-3.48-.28h-1.15V130c-.57,0-1.17,0-1.75,0s-1.2,0-1.77,0v.05h-1.12c-1.18.05-2.34.15-3.49.28h-.07c-.63.07-1.24.13-1.85.22v.07h-.32c-1.44.2-2.9.47-4.31.75v.07h-.16c-1.69.38-3.36.82-5,1.34v0h0a5.9,5.9,0,0,0-.75.24v0h-.08c-1,.34-1.94.7-2.9,1.08v0h0a12.82,12.82,0,0,0-1.31.54h0a51.12,51.12,0,0,0-8.14,4.35h0l-.79.52v0h0L836.59,141v0h-.07c-.34.27-.7.52-1,.79-.54.41-1.08.86-1.6,1.31v0h0A49.7,49.7,0,0,0,829,148v0h0c-.45.52-.9,1.07-1.33,1.62a11.56,11.56,0,0,0-.78,1.06v0h0l-.52.74v.08h0c-.66.95-1.29,1.92-1.87,2.9v.07h0a36.49,36.49,0,0,0-2.12,4.3v.06h0c-.4,1-.74,1.88-1.08,2.82v.16h-.05c-.06.22-.15.48-.22.7v.12h0c-.16.63-.34,1.25-.51,1.87v0c-.09.41-.16.8-.25,1.16V166h0a9.74,9.74,0,0,0-.23,1.3v.05c-.1.67-.2,1.3-.27,2v.22h0a33.49,33.49,0,0,0-.18,3.62V1201.59q0,5.87.46,11.64h0v.52c.08,1,.19,2,.29,3v0c.07.79.17,1.61.27,2.42v0c.07.7.15,1.42.25,2.14h0v.14c.29,2.32.66,4.62,1.07,6.91h0v.16c.17.94.35,1.88.55,2.84.24,1.27.53,2.54.79,3.78h0v.08c.07.34.13.66.22,1h0v.19c.51,2.13,1.06,4.25,1.64,6.3.17.63.34,1.26.54,1.9.28.91.52,1.82.83,2.72a6.83,6.83,0,0,0,.27.8v0c.07.28.17.52.24.8v0a7.08,7.08,0,0,1,.25.78h0v.05c.08.25.17.5.25.77h0v.08c.06.23.16.49.24.73v0l1.33,3.78c.19.44.36.88.53,1.33h0v.08c.19.42.32.87.49,1.3h.05v.12c.87,2.15,1.79,4.3,2.74,6.39.08.17.14.34.24.55h0v.07q2.85,6.25,6.21,12.15h0v.06c.35.63.7,1.22,1.07,1.85h0v0c1,1.65,1.94,3.24,3,4.84h0v0c.18.27.34.53.5.78H844v.07c1,1.62,2.14,3.25,3.25,4.83.45.61.89,1.27,1.33,1.88,1.07,1.47,2.16,2.92,3.25,4.35.35.45.7.89,1.07,1.33h0v0c.35.45.72.89,1.08,1.34h0v0c.91,1.09,1.8,2.17,2.73,3.24a2.69,2.69,0,0,0,.22.28H857v0c1.58,1.85,3.21,3.62,4.87,5.4l.27.27h0v0l.23.24h0v0a2.75,2.75,0,0,1,.22.26h0l.21.23H863v.06c1.15,1.16,2.32,2.33,3.5,3.48h0v0c.08.06.16.14.27.24h0v0c.06.07.17.17.24.26h0v0a3.09,3.09,0,0,1,.25.23h0v0c1.15,1.1,2.35,2.17,3.53,3.25.72.62,1.42,1.27,2.14,1.88h0v0c.62.55,1.27,1.07,1.89,1.6,1.31,1.09,2.66,2.19,4,3.25H879v0c1.78,1.38,3.57,2.75,5.42,4h0v0c1.42,1,2.87,2,4.34,3a5.41,5.41,0,0,1,.8.55c1,.65,2,1.28,3,1.89s1.76,1.1,2.67,1.62h.06v0c.44.28.88.52,1.33.8h0v0c.63.35,1.24.73,1.9,1.06,1,.55,2,1.11,3,1.63h0l.5.28h0v0c2.16,1.12,4.33,2.19,6.52,3.24h0c1,.46,2,.93,3,1.36h0c1.26.54,2.53,1.09,3.8,1.62.44.16.89.36,1.33.54h.06c.44.19.9.36,1.34.52,1.69.68,3.42,1.31,5.18,1.91.24.1.48.16.76.27h0v0a7.52,7.52,0,0,0,.8.26h.05v0c.24.09.51.17.76.24h0a8.27,8.27,0,0,0,.8.26h0c.27.09.55.17.83.28l2.66.83h.06l1.82.51H932v0c1.68.47,3.37.93,5.1,1.32h.08v0l1,.26h0v0c.78.17,1.57.36,2.34.52h.12v0l2.41.52h0c.92.2,1.87.37,2.8.55h.19v.06l3,.5c1.22.19,2.41.37,3.63.54h.15c.62.11,1.29.19,1.93.25h.27v0c.7.08,1.39.19,2.09.26h.08l2.74.27h.25v0c1.1.1,2.2.17,3.29.24h.25v0c1.76.12,3.56.2,5.35.25h1.7v0c.93,0,1.87.06,2.8.06l3.18,0v-.06h1.41c1.79-.05,3.59-.12,5.35-.25v0h.29c2.09-.14,4.16-.32,6.23-.54h0c.73-.07,1.42-.15,2.14-.26v0h.2c.68-.07,1.32-.17,2-.24v0h.09c.6-.07,1.2-.18,1.8-.26v0h.1c.52-.07,1-.15,1.55-.24v0h.18c.48-.08,1-.15,1.44-.27h.19c.48-.09.95-.18,1.45-.25v0h.1c1.32-.25,2.68-.5,4-.77v0h.16c.38-.1.82-.17,1.23-.28h0c1.53-.35,3.08-.7,4.58-1.08,1-.25,2-.52,3-.79h.11l3.7-1.08v0h.07l.76-.23v0h.12c2.13-.68,4.28-1.4,6.39-2.15v0h.07c.25-.09.5-.16.75-.27h0c.72-.26,1.45-.52,2.14-.79h0c.9-.36,1.81-.7,2.71-1.08v0h.06c.42-.19.86-.35,1.3-.55h0c.61-.28,1.24-.52,1.87-.8v0h0c2.21-1,4.34-1.94,6.49-3,.18-.11.36-.18.53-.28h0c.55-.27,1.08-.54,1.62-.79,1.37-.7,2.72-1.4,4.08-2.16h0l.5-.29c.62-.34,1.28-.7,1.89-1.05v0h0c.63-.36,1.24-.73,1.87-1.08h0c.45-.28.89-.52,1.35-.8h0c1.45-.87,2.9-1.8,4.31-2.71l.81-.53v0h0c.27-.17.52-.36.8-.52v0h0c.27-.16.53-.35.77-.52v0h0c.91-.61,1.81-1.22,2.7-1.88v0h0c.25-.19.49-.36.77-.55s.72-.53,1.08-.77v0h0c1.07-.8,2.14-1.6,3.2-2.42v0h.07c.8-.61,1.63-1.24,2.42-1.88,1.09-.89,2.16-1.78,3.24-2.71v0h0l1.88-1.62v0h0c.51-.41,1-.87,1.48-1.3.49.45,1,.88,1.46,1.3h0v0c.64.56,1.24,1.08,1.88,1.62h0v0c1.07.91,2.13,1.8,3.24,2.71.8.64,1.6,1.27,2.43,1.88h0v0l3.21,2.42h.07v0c.34.28.72.53,1.07.77s.5.36.78.55h0v0c.89.64,1.79,1.27,2.69,1.88h0v0c.28.17.52.36.77.52h0v0c.27.16.52.35.79.52h0v0c.29.18.54.34.81.53,1.41.92,2.86,1.82,4.29,2.71h0c.45.28.9.55,1.34.8.63.37,1.24.72,1.89,1.08h0v0c.8.44,1.61.89,2.39,1.34h.07c1.34.72,2.69,1.46,4.06,2.16.36.16.73.35,1.07.54h0l.55.28c.18.08.35.16.55.27,2.16,1,4.3,2,6.49,3h0v0c.62.28,1.24.56,1.9.8.43.17.86.34,1.29.54h0v0c.89.36,1.8.72,2.73,1.07.73.27,1.45.55,2.16.79l.75.28h.08v0c2.12.77,4.26,1.47,6.4,2.14h.1c.26.08.51.19.78.27h0l3.72,1.08h.09c2.51.7,5,1.32,7.6,1.88h0c.41.09.83.16,1.22.27h.13v0c1.31.28,2.64.55,4,.8h.08v0c.48.09,1,.16,1.45.24h.17c.48.08,1,.15,1.45.26h.19c.53.08,1.05.19,1.55.25h.08c.61.1,1.2.19,1.81.26h.1c.66.1,1.31.19,2,.26h.18v0c.72.11,1.43.18,2.14.25h0c2.07.23,4.15.41,6.24.56h.27v0c1.79.12,3.61.2,5.39.26h1.41v0c1,0,2.13,0,3.18,0s1.87,0,2.8-.06v0h1.69c1.79-.06,3.6-.15,5.35-.26v0h.26c1.1-.07,2.19-.15,3.27-.26v0h.25c1.66-.14,3.28-.32,4.92-.53v0h.28c.61-.07,1.25-.17,1.9-.24v0h.18l3.63-.54c.55-.11,1.08-.19,1.62-.28l1.36-.22v-.06h.2l2.79-.55h0c1.25-.26,2.53-.52,3.79-.84.36-.06.7-.16,1.06-.25v0h.06c.35-.07.67-.16,1-.25v0h.09c1.08-.25,2.13-.52,3.19-.8.61-.18,1.26-.35,1.88-.54h.1l1.81-.52v0h0c.89-.28,1.76-.52,2.67-.83.27-.1.54-.17.8-.28h0c.27-.07.52-.17.79-.26v0h0c.26-.08.52-.17.79-.24v0h0c.24-.07.49-.18.75-.26v0h.06l.74-.26h0c1.72-.6,3.45-1.23,5.14-1.91h0c.45-.16.9-.35,1.36-.52v0h0c.46-.17.86-.36,1.29-.54h0c1.27-.53,2.54-1.06,3.79-1.62v0h0l2.94-1.34h0c2.2-1,4.36-2.11,6.49-3.23h0l.5-.26v0h0c1-.52,2-1.06,3-1.61h0c.61-.36,1.28-.7,1.91-1.07v0h0c1.35-.8,2.7-1.6,4-2.44h0c.71-.46,1.45-.9,2.14-1.35l.84-.52.8-.52h0c1.45-1,2.91-1.94,4.33-3v0h0c1.81-1.3,3.62-2.66,5.38-4v0h0c.36-.29.73-.55,1-.83,1-.8,2-1.63,3-2.45.61-.52,1.26-1.08,1.89-1.6v0h0c.71-.61,1.41-1.25,2.14-1.89,1.1-1,2.17-2,3.24-3a2.26,2.26,0,0,1,.29-.26v0h0a1.34,1.34,0,0,0,.25-.23v0h0a1.39,1.39,0,0,1,.25-.23v0h0c.09-.07.15-.15.22-.21v-.06h.06c1.28-1.24,2.52-2.49,3.76-3.77v0h.05a2.71,2.71,0,0,1,.24-.25v0h0a2,2,0,0,1,.26-.24v0h0l.26-.26c1.68-1.75,3.29-3.54,4.89-5.36v-.06h0l.24-.24c1.3-1.5,2.54-3,3.78-4.59v-.06h0c.36-.44.69-.91,1.06-1.34v0c1.1-1.42,2.19-2.87,3.24-4.32v0h0c.45-.64.9-1.25,1.35-1.89v0c1.29-1.84,2.56-3.75,3.79-5.66v0h0c1-1.6,2-3.24,3-4.84v-.06h0c.27-.45.52-.9.79-1.35,1.14-2,2.23-4,3.25-6,.1-.17.19-.36.29-.52v0c.09-.17.16-.35.26-.52a5.25,5.25,0,0,1,.29-.53l.27-.52.28-.52c.1-.19.16-.35.27-.54.56-1.16,1.1-2.31,1.63-3.46v-.07h0a4.67,4.67,0,0,1,.23-.51v0c1.36-3,2.61-6.11,3.78-9.23h0c.37-1,.72-2,1.08-3,.1-.26.17-.5.28-.74v-.06h0c.08-.25.19-.47.27-.72v-.1h0c.07-.26.14-.5.23-.74v-.07h0c.07-.25.17-.51.25-.74v-.06h0c.5-1.43.94-2.87,1.36-4.33h0c.19-.64.35-1.25.52-1.88V1243c.7-2.46,1.32-5,1.9-7.51v-.09h0c.3-1.26.55-2.51.81-3.75v-.05c.17-.93.37-1.84.54-2.8v-.19h0c.4-2.27.75-4.54,1-6.84v-.21h0c.09-.7.17-1.39.25-2.07v-.12c.19-1.78.36-3.56.52-5.36v-.36h0q.43-5.87.44-11.89V649.1c0-2.39-.06-4.82-.17-7.21h-.06v-1c0-.39,0-.79-.08-1.22V170.15c0-1.08,0-2.16-.14-3.23h-.06v-.39c-.06-.6-.13-1.19-.22-1.78h-.06v-.22c-.06-.49-.18-.95-.27-1.43v0c-.15-.72-.33-1.44-.52-2.15h0v0c-.07-.25-.13-.5-.22-.74h-.05V160a40.24,40.24,0,0,0-1.59-4.17h0v-.08c-.07-.15-.16-.32-.22-.48h-.06v-.11c-.33-.7-.7-1.38-1.08-2.06h0v0c-.24-.44-.49-.88-.77-1.31h0v0c-.5-.8-1-1.61-1.57-2.41h0v-.06c-.26-.36-.52-.68-.78-1h-.05v-.07c-.27-.36-.55-.68-.79-1-.69-.82-1.4-1.66-2.18-2.44-.07-.12-.18-.18-.26-.28h0v0a2.62,2.62,0,0,1-.22-.25h0v0c-.28-.26-.53-.52-.8-.79-.11-.07-.17-.17-.28-.24-.71-.65-1.4-1.31-2.15-1.9h0v0l-1.28-1.05h0V140l-1-.77h0v-.05c-.64-.44-1.26-.89-1.9-1.32h0c-.7-.46-1.43-.93-2.14-1.34h0v0c-.63-.38-1.25-.72-1.87-1.08h0l-.49-.28h-.07v0a4.89,4.89,0,0,1-.48-.26h0v0c-.16-.08-.32-.17-.46-.23h-.1v-.06c-.15-.06-.3-.14-.45-.21h-.07v-.06c-.18-.07-.32-.16-.49-.24h0l-.52-.24h0c-.6-.28-1.23-.56-1.84-.8h-.07v0l-1.29-.52h-.06v0c-1.55-.6-3.15-1.11-4.78-1.59h-.1v0c-1.4-.41-2.83-.76-4.27-1.05h-.07v0a13.39,13.39,0,0,0-1.32-.27h0l-1.54-.25h-.08c-.59-.12-1.22-.2-1.82-.26h-.35v-.05a62.14,62.14,0,0,0-14.93,0v.05h-.4a17.36,17.36,0,0,0-1.76.26v0h-.12c-.5.06-1,.17-1.51.23v0h-.09c-.44.08-.86.16-1.27.26v0h-.12c-.41.07-.82.18-1.22.27-1,.22-2,.5-3,.77v.05h-.16c-.6.16-1.18.35-1.75.53h0c-.55.17-1.07.34-1.58.55s-.91.32-1.35.5v.05h-.1a59.66,59.66,0,0,0-8.32,4v.05H1252c-.43.25-.85.52-1.27.79v0h0c-.83.52-1.62,1.08-2.4,1.62l-1.08.79v0h0c-1.14.85-2.24,1.79-3.26,2.7a2.62,2.62,0,0,0-.25.22v0h0c-.76.68-1.46,1.39-2.16,2.11v.06h0a2.5,2.5,0,0,0-.23.23v0h0a1.36,1.36,0,0,1-.22.25c-.54.63-1.1,1.27-1.62,1.91v0c-.27.35-.54.68-.79,1v.07h0l-.79,1.05v0h0c-.38.53-.73,1.06-1.06,1.58v0h0c-.28.43-.52.85-.77,1.31v.06h-.06a42.12,42.12,0,0,0-2.14,4.31v0h0c-.17.44-.33.86-.51,1.31v0c-.1.25-.17.46-.25.73V159h0c-.07.25-.17.48-.24.72v.12h0c-.08.26-.18.54-.25.8-.21.69-.39,1.39-.55,2.13v0a12.92,12.92,0,0,0-.25,1.33v.32h0a31.34,31.34,0,0,0-.48,5.66V1201.71a51.14,51.14,0,1,1-102.28,0V896.3h-.58V41.07c0-.51,0-1,0-1.5H1128v-.85a20.8,20.8,0,0,0-.26-2.39v-.07a11.27,11.27,0,0,0-.24-1.29h0v-.28c-.08-.35-.15-.71-.22-1.1h0v-.15c-.24-1-.52-1.93-.83-2.85-.25-.71-.53-1.43-.79-2.16v0a41.24,41.24,0,0,0-2.14-4.32h0V24c-.23-.43-.52-.88-.76-1.31h0v0c-.36-.52-.7-1.08-1.07-1.58h0v0c-.26-.35-.5-.69-.78-1.05h-.07V20c-.27-.34-.54-.7-.82-1-.6-.75-1.25-1.47-1.88-2.17l-.26-.27h0v0a1.85,1.85,0,0,0-.24-.25h0v-.07a2.28,2.28,0,0,1-.22-.22h-.07v-.06c-.44-.44-.9-.87-1.34-1.3-.7-.63-1.41-1.26-2.16-1.89h0c-.46-.39-.91-.73-1.35-1.07-.6-.46-1.21-.94-1.85-1.35h0v0c-.94-.64-1.88-1.27-2.89-1.88h-.09v0c-.43-.23-.88-.52-1.33-.76h0v0c-1.4-.78-2.82-1.5-4.32-2.15h0v0c-.63-.27-1.25-.54-1.89-.79h0c-.7-.28-1.39-.56-2.1-.81h-.08v0c-.77-.25-1.57-.53-2.36-.78h-.08v0c-.56-.18-1.16-.36-1.76-.53h-.12v0c-1.06-.3-2.12-.54-3.2-.78h0v0q-.64-.15-1.26-.24h-.11v0c-1.06-.19-2.13-.36-3.2-.52h-.34v0l-1.92-.24H1083c-1.14-.11-2.33-.21-3.49-.26h-1.13v0c-.55,0-1.1,0-1.65,0s-1.08,0-1.61,0l-.24-.13Zm975.94,713.46h0v.9h0v1.37c.06,1.1.12,2.17.26,3.24h0v.18c.08.57.15,1.17.23,1.74h.07v.3c.07.44.13.88.21,1.33h0v.25c.16.82.33,1.69.53,2.47v0c.11.36.17.71.27,1.05v0c.08.28.13.52.23.8h.05v.2c.11.3.19.6.28.88v0c.07.28.16.52.25.8h0v0c.07.26.16.51.24.77h0V730c.13.44.32.85.48,1.31h.07v.18c.06.22.18.41.25.65h0v0c.25.62.52,1.24.76,1.84h0v.08c.08.14.16.32.23.48h.06v.13a48.58,48.58,0,0,0,2.69,5h0v0a8.62,8.62,0,0,0,.5.79h.06v.07c.52.8,1,1.6,1.59,2.38h0v0l.79,1.08h0v0c.85,1.12,1.74,2.19,2.67,3.22h0v0a1.47,1.47,0,0,1,.23.26h0v0l.18.22h.08V748c.85.89,1.76,1.8,2.65,2.63h.06v.07l.22.21h.06v0l.28.25c.93.85,1.91,1.67,2.93,2.45h.05v0c.35.26.7.52,1,.76h.06v0c1.06.77,2.1,1.47,3.19,2.15h.06v0c.44.28.87.53,1.32.77h.06v0a49,49,0,0,0,7.49,3.48h.11V761c1.06.38,2.1.73,3.2,1h.08v0c.29.07.58.17.85.25h.2v.05a46.42,46.42,0,0,0,4.79,1h.38v0c.5.06,1,.15,1.51.2h.13c.88.11,1.78.21,2.65.26h.87v.05c.88,0,1.76.07,2.65.07h1.6c.86,0,1.69,0,2.54-.07v-.05h1c.86-.06,1.71-.15,2.56-.26h.22l1.68-.25v0h.16c.49-.08,1-.19,1.46-.28h0c.8-.13,1.59-.32,2.4-.52v0h.06c.34-.07.69-.18,1-.28a49.23,49.23,0,0,0,4.9-1.61v0h.07c1.28-.51,2.51-1,3.72-1.61v0h0c.16-.08.34-.17.52-.24v0h0a5,5,0,0,1,.52-.26h0c.82-.4,1.6-.86,2.41-1.34v0h0c.45-.25.87-.52,1.34-.79h0c.82-.52,1.6-1,2.41-1.62l1.08-.8v0c1-.69,1.85-1.41,2.7-2.15a1.22,1.22,0,0,0,.29-.25v0h0l.23-.2v-.06h.11a53.52,53.52,0,0,0,4-4v-.07h.1l.19-.23v0h0c0-.1.14-.17.19-.27.75-.87,1.46-1.79,2.18-2.7v0h0c.23-.33.52-.72.75-1.07.38-.53.76-1.06,1.09-1.6v0h.05c.18-.28.33-.55.52-.8.28-.44.52-.87.79-1.33v0a24.71,24.71,0,0,0,1.37-2.44,2.71,2.71,0,0,1,.29-.52c.09-.18.14-.35.23-.55.62-1.22,1.13-2.47,1.66-3.75v0a3.21,3.21,0,0,0,.23-.68v-.14h.1a32.26,32.26,0,0,0,1-3.16v-.12h0c.19-.63.38-1.29.53-1.9.33-1.3.56-2.65.8-4v-.34h0c.1-.5.14-1,.23-1.52v-.1c.1-.92.19-1.88.24-2.82v-1h0c0-.74,0-1.52,0-2.27s0-1.57,0-2.35h0v-.93c-.05-1-.15-1.91-.24-2.88v0c-.1-.54-.18-1.06-.23-1.58h0v-.32c-.24-1.27-.48-2.54-.8-3.78h-.05v-.21a5.88,5.88,0,0,0-.24-.89v-.17c-.09-.3-.18-.63-.28-.94v0c-.24-.79-.52-1.59-.8-2.39h-.05V697a3.8,3.8,0,0,0-.23-.67h0v-.07a49.11,49.11,0,0,0-3.49-7.54h0c-.23-.47-.52-.91-.75-1.33v-.05c-.72-1.11-1.43-2.17-2.18-3.22v0c-.29-.35-.56-.7-.8-1v-.06c-.8-1-1.61-2-2.45-2.95-.11-.1-.15-.18-.24-.27h0v0a1.09,1.09,0,0,1-.19-.26h0v0c-1-1-1.95-2-3-3h0v0l-.23-.22h-.05v0c-1-1-2.13-1.85-3.26-2.7v0c-.34-.28-.71-.52-1.08-.8h0c-.76-.55-1.58-1.09-2.38-1.62h-.08v-.05c-.27-.18-.52-.31-.78-.48h0a45.54,45.54,0,0,0-5.07-2.7h-.09v-.06a5.24,5.24,0,0,1-.48-.23h0v0c-.63-.28-1.24-.54-1.87-.8h-.06v0c-.7-.27-1.42-.56-2.13-.79h0c-.26-.11-.51-.19-.78-.28h0c-.28-.11-.56-.18-.8-.25-.64-.21-1.26-.38-1.91-.55h0c-.36-.11-.71-.18-1-.27h0c-1.34-.32-2.69-.61-4.06-.8h-.29v-.06c-1.72-.24-3.46-.41-5.2-.5h-1V663c-.41,0-.8,0-1.2,0h-1.6c-.43,0-.85,0-1.28,0v0h-1a32.87,32.87,0,0,0-3.41.28h-.06c-.62.07-1.26.14-1.84.24v0h-.2c-.47.08-.94.14-1.42.26v0H2092c-1.16.21-2.28.47-3.4.75v0h-.19c-.31.07-.59.16-.89.25v0h-.09c-1.35.41-2.67.82-4,1.32v0h-.08c-1.05.43-2.13.85-3.15,1.34v0h0a5,5,0,0,0-.52.26v0h-.08l-.48.23v.06h-.08c-.13.06-.3.14-.46.23v0h-.08c-.15.07-.3.17-.48.26v0h0c-.79.42-1.61.86-2.39,1.33v0h0c-.72.41-1.43.89-2.15,1.35s-1.27.88-1.89,1.33v0h-.05c-.36.26-.71.52-1.05.79v0h0c-1.22,1-2.37,1.95-3.48,3a1.62,1.62,0,0,0-.28.25v0h0a1.48,1.48,0,0,0-.25.25h0l-1.33,1.33v0h0c-.07.08-.16.17-.23.26v0h0a3.19,3.19,0,0,1-.26.26c-1,1.13-2,2.3-3,3.51v0h0c-.28.36-.52.7-.77,1v.06h0c-.45.61-.89,1.24-1.33,1.9v0l-.51.79c-.28.43-.55.87-.84,1.33v0h0c-.47.78-.9,1.58-1.34,2.38v.07h0c-.07.14-.16.3-.23.45v.09h0c-.07.16-.16.31-.22.45v.11H2056c-.07.15-.14.3-.22.45V692h-.06a4.25,4.25,0,0,1-.22.5v0h0c-.47,1-.92,2.1-1.33,3.17v.09h0c-.5,1.31-.95,2.6-1.33,3.94v.15h-.06c-.07.26-.14.56-.22.83v.22h-.08c-.29,1.1-.54,2.22-.73,3.36v.2h0c-.08.46-.18.91-.26,1.38v.22h0c-.09.6-.17,1.21-.21,1.79V708c-.12,1.1-.21,2.18-.29,3.32v1.3h0v.89ZM1845.72,847.93c0,.6,0,1.18,0,1.78h0v1.06c.06,1,.16,2,.25,3h0v.12c.07.6.14,1.16.22,1.77h0v.23c.08.47.14,1,.25,1.4h0v.15c.14.77.3,1.54.5,2.3h.06V860c.06.3.14.56.22.88h0V861c.07.29.15.6.25.9h0V862c.31,1.06.65,2.11,1,3.16h.06v.17a4.16,4.16,0,0,0,.27.66h0v.07c.42,1.08.86,2.14,1.36,3.19h0v.06a3.64,3.64,0,0,1,.22.49h0v.07c.07.16.16.31.24.46h0v.11c.08.14.13.29.22.44h0V871c.29.52.54,1,.81,1.52a14.84,14.84,0,0,0,.76,1.34h0V874c.26.43.53.89.8,1.3h0v0c.52.83,1,1.62,1.62,2.38a8.77,8.77,0,0,0,.8,1.07h0v0c.76,1,1.56,2,2.41,3h0v0l.22.26h.06v0a49.07,49.07,0,0,0,4,4h.05v0l.25.22h0v0c.94.85,1.94,1.66,3,2.42h0v0c.35.28.73.56,1.07.8.81.58,1.6,1.1,2.43,1.62h0v0c.43.25.85.52,1.32.78h0v.06l1.36.77c.36.17.69.38,1,.55h.08v0l.44.23h.11v0l.45.22h.08v.06l.46.22h.08v0a4.09,4.09,0,0,1,.51.26h0c1,.49,2.09.93,3.19,1.34h.05v0c.26.08.47.17.67.25h.15v0c1,.38,2.1.72,3.17,1h.07v0a9.21,9.21,0,0,0,.9.25h.17v.06a8.86,8.86,0,0,1,.89.21h.19v.06c.8.17,1.54.34,2.34.5h.12v0l1.43.25h.2c.6.11,1.2.19,1.84.27h.1c1,.11,2,.19,3.06.24h1.28v.05c.5,0,1,0,1.49,0s1,0,1.5,0v-.05h1.28c1,0,2.07-.15,3.07-.24h.09c.6-.08,1.22-.17,1.82-.27h.22l1.44-.25v0h.12c.77-.15,1.54-.33,2.32-.5v-.06h.2a8.86,8.86,0,0,1,.89-.21v-.06h.18c.29-.08.59-.14.89-.25v0h.08c1.07-.32,2.14-.64,3.16-1v0h.15l.66-.25v0h.06c1.08-.41,2.17-.84,3.18-1.34h0a3.93,3.93,0,0,0,.5-.26v0h.07a4.16,4.16,0,0,1,.48-.22V894h.1c.16-.08.31-.14.44-.22v0h.11l.45-.23v0h.07c.34-.17.67-.35,1-.55l1.37-.77v-.06h.07c.45-.26.88-.53,1.29-.78v0h.07c.81-.52,1.62-1.06,2.4-1.62.36-.24.74-.52,1.08-.8v0h0c1-.77,2-1.58,3-2.42v0h0l.26-.22v0h.05a2,2,0,0,1,.22-.19v-.06h.1c1.2-1.1,2.34-2.23,3.44-3.44v-.1h.06a1.37,1.37,0,0,0,.19-.23V882h.06l.21-.24v0h0c.84-1,1.65-2,2.42-3v0h0c.28-.33.52-.72.8-1.07.58-.79,1.1-1.59,1.62-2.38v0h0c.27-.41.52-.83.79-1.3v-.05h.07l.76-1.35c.17-.33.35-.7.55-1v-.06h.07a3,3,0,0,1,.22-.44v-.12h0c.07-.14.16-.3.24-.44v-.11h0c.07-.14.16-.3.23-.46v-.07h0c.07-.17.15-.33.22-.49v-.06h0c.47-1,.93-2.1,1.35-3.18V866h0c.08-.22.17-.41.25-.65v-.17h0c.38-1.05.74-2.1,1-3.16v-.12h0c.11-.29.17-.59.25-.88v-.21h0c.07-.32.15-.58.23-.88v-.22h.07c.06-.33.13-.65.22-1v-.12h0c.1-.4.17-.8.25-1.21v-.17h0c0-.46.16-.92.22-1.4v-.49h.09c.07-.52.14-1,.21-1.5v-.12h0c.13-1,.21-2,.26-3v-1.37h0c0-.51,0-1,0-1.51V579c0-.52,0-1,0-1.54h0v-1.3c0-1-.14-2-.26-3v-.07c-.06-.52-.12-1.05-.21-1.54h-.08v-.43c-.06-.5-.17-1-.23-1.47h0v-.11c-.07-.41-.17-.85-.25-1.26v-.06c-.07-.34-.15-.66-.22-1h-.06V567c-.08-.32-.16-.63-.23-.93h0V566c-.09-.33-.18-.62-.25-1v0c-.23-.8-.49-1.62-.75-2.4h-.05v-.17c-.08-.22-.15-.43-.22-.64h-.06v-.12a4.71,4.71,0,0,0-.27-.71v0c-.16-.44-.35-.91-.52-1.35v0c-.35-.81-.7-1.64-1.07-2.42v0c-.07-.18-.17-.35-.25-.53h0v0c-.08-.17-.17-.36-.25-.5h0v0c-.11-.17-.19-.34-.29-.5v0c-.32-.63-.67-1.24-1-1.87h0v-.09c-.09-.16-.16-.3-.26-.45v0c-.16-.27-.32-.54-.5-.8h0v-.1c-.28-.42-.55-.85-.83-1.26-.42-.65-.88-1.28-1.33-1.89h0v-.05c-.25-.36-.52-.72-.77-1h0v-.05c-.8-1-1.61-2-2.45-2.95-.06-.09-.16-.17-.25-.28h0v0c-.08-.07-.13-.16-.22-.24h-.07v0l-.19-.24h-.06V544c-.78-.83-1.56-1.6-2.37-2.38H1932v-.07l-.22-.19h0v-.05a2.1,2.1,0,0,0-.26-.23h0v0c-1.06-.94-2.12-1.84-3.23-2.7h0v0c-.35-.28-.69-.52-1-.8h0v0c-1.05-.74-2.12-1.46-3.21-2.15h0c-.43-.28-.88-.53-1.32-.78h-.07v0a49.24,49.24,0,0,0-6.7-3.24h-.09v0l-2.13-.78h0c-.28-.11-.52-.18-.81-.27h0c-.59-.2-1.18-.39-1.78-.56h-.13v0l-.87-.22h-.22v0c-.31-.07-.59-.15-.88-.23h-.19v-.06c-.8-.16-1.58-.35-2.4-.49h0c-.52-.1-1.08-.18-1.61-.25h-.29v-.06a44.43,44.43,0,0,0-6.38-.49h-1.63a46.47,46.47,0,0,0-6.36.49v.06h-.31c-.54.07-1.07.17-1.59.25h0c-1.17.22-2.34.46-3.49.77v0h-.21c-.31.07-.58.16-.87.22v0h-.13c-.59.17-1.19.35-1.76.56h0c-.25.09-.55.16-.8.27h0c-.73.25-1.45.49-2.15.78v0h-.08a53.85,53.85,0,0,0-6.71,3.24v0h-.06c-.44.25-.86.52-1.31.77v0h0c-1.1.68-2.18,1.39-3.23,2.15v0h0c-.35.28-.7.52-1.06.8v0h0a39.83,39.83,0,0,0-3.21,2.7v0h0a1.78,1.78,0,0,1-.26.22v.06h0l-.2.19v.08h-.08c-.92.85-1.8,1.74-2.65,2.67v0h0l-.22.24v0h0a1.73,1.73,0,0,1-.26.28c-.84.95-1.67,1.93-2.45,2.95v.05h0c-.27.35-.53.67-.77,1v0h0c-.45.61-.89,1.24-1.34,1.89-.25.41-.54.85-.8,1.26v.1h0c-.19.28-.33.53-.51.8-.47.8-.93,1.61-1.35,2.42v0c-.1.18-.16.33-.27.5V556h0c-.07.16-.17.32-.25.5v0h0c-.07.17-.18.35-.26.52v0c-.36.81-.75,1.6-1.07,2.41v0c-.17.44-.34.89-.53,1.34v0c-.08.22-.16.47-.26.69v.13h-.05c-.37,1.06-.73,2.11-1,3.22V565c-.1.32-.18.61-.25.94v.13h0c-.08.31-.14.62-.22.92v.15h0c-.08.34-.16.67-.22,1v0c-.11.44-.18.86-.26,1.29v.07h0c-.11.49-.19,1-.26,1.46v.18h0c-.1.6-.16,1.23-.25,1.82v.07c-.15,1-.2,2-.28,3v1.27h0c0,.52,0,1,0,1.56V847.8l-.13.07Zm-205.22,134c0,1.07,0,2.17.09,3.24h.06v.8c.07.83.14,1.63.26,2.43h0v.14c.06.51.15,1,.22,1.49h0v.33c.16.88.32,1.81.52,2.66h0v.11c.08.32.15.66.23,1h0v.14c.08.32.16.62.25.93h0v.09c.25.89.5,1.77.8,2.62h0v.1a5.46,5.46,0,0,0,.26.72h0v.08c.1.24.17.5.27.76.17.45.35.88.52,1.34h0v0c.26.63.52,1.26.81,1.85h0v.05c.08.17.16.32.23.48h.06v.1c.08.14.12.29.21.44h.07v.15a41.6,41.6,0,0,0,2.12,3.94h0v.1l.27.46a6.47,6.47,0,0,0,.52.8h0v0c.52.8,1.05,1.61,1.62,2.38.26.33.52.72.8,1.06h0v0c.76,1,1.6,2,2.43,3l.24.28h0v.05a1.37,1.37,0,0,1,.17.23h.08v.06c1,1.11,2.06,2.17,3.2,3.19h.08v.08l.21.2h.06v.06a1.33,1.33,0,0,1,.26.21h0v0c.94.84,1.91,1.63,2.94,2.41h0v0c.34.28.7.54,1.05.78h0v0c1.06.75,2.12,1.47,3.22,2.16h0l1.34.79h0v0a55.4,55.4,0,0,0,6.77,3.24h0l.68.28h.13v0c1.34.5,2.69.93,4,1.3h0c.32.1.65.17,1,.28h.1v0c.34.07.66.18,1,.25h.08v0c.84.2,1.71.37,2.6.53h.12v0l1.59.25h.31v0c.67.09,1.34.16,2,.22h.15c1.54.13,3.08.22,4.66.22s3.07-.08,4.56-.19v0h.27c.74-.08,1.46-.15,2.18-.24v0h.11l1.52-.23v0h.2l2.5-.49v-.05h.18l.89-.23v-.06h.2c.31-.06.6-.14.86-.21v0h.14c.87-.24,1.74-.5,2.6-.8h.07c.25-.08.49-.19.75-.29h0a11.79,11.79,0,0,0,1.33-.51v0h.12c1.07-.42,2.1-.87,3.13-1.34h0l.52-.25v0h0c.19-.08.32-.17.5-.24v0h.06c.18-.08.33-.17.49-.25h.06c.19-.07.32-.18.5-.26h0c.64-.34,1.28-.66,1.87-1v-.06h.07c.44-.24.88-.52,1.31-.78h0c.82-.51,1.62-1,2.39-1.6v0h0c.36-.25.7-.5,1.06-.77v-.05h.06c.36-.25.69-.52,1-.78v0h0c.47-.33.9-.71,1.33-1.06a3.22,3.22,0,0,1,.28-.24v0h.06a52.35,52.35,0,0,0,5.37-5.37v0h0a1.79,1.79,0,0,0,.22-.25c.37-.41.72-.86,1.08-1.3v-.06h0c.27-.32.52-.68.79-1v-.09h.07c.25-.33.5-.68.74-1v-.06h.06c.55-.79,1.07-1.58,1.59-2.38v-.06h.06a9.1,9.1,0,0,1,.51-.8v0c.09-.15.17-.31.26-.44v-.11h0c.47-.78.91-1.54,1.32-2.34v-.09h0a4.66,4.66,0,0,1,.22-.45v-.11h0c.08-.15.16-.29.23-.45v-.09h0a3.42,3.42,0,0,1,.23-.47v-.09h0c.1-.17.16-.35.24-.48v0h0c.28-.6.55-1.22.8-1.84v-.06h0c.17-.45.34-.89.52-1.34v0c.1-.21.17-.46.27-.69v-.09h0c.28-.77.56-1.58.78-2.37v-.08h0l.53-1.85v0h0c.1-.35.16-.69.25-1.06v0c.19-.85.37-1.7.52-2.53v-.16h0c.11-.5.16-1,.24-1.52v-.35h.06a49.9,49.9,0,0,0,.5-7V445.19a50.18,50.18,0,0,0-.5-7.1h-.06v-.33c-.08-.52-.13-1.05-.24-1.57h0v-.11c-.27-1.51-.63-3.05-1.05-4.54h0v-.17c-.08-.3-.17-.6-.26-.9v0c-.19-.56-.35-1.08-.52-1.61h0v-.1c-.07-.25-.18-.48-.25-.72V428c-.16-.45-.32-.87-.51-1.34h-.06v-.12c-.41-1.08-.85-2.08-1.33-3.12a4.72,4.72,0,0,1-.26-.55h0v0c-.08-.16-.17-.34-.26-.49h0v0a4.66,4.66,0,0,0-.24-.5v0c-.44-.81-.88-1.62-1.36-2.41h0v0c-.25-.44-.52-.9-.79-1.32s-.35-.56-.51-.8h0v0c-.6-.93-1.22-1.8-1.88-2.67h0v0c-.78-1-1.58-2-2.42-3h0v0l-.22-.24h0v-.07a52.5,52.5,0,0,0-4.3-4.27h0v-.06a.79.79,0,0,1-.23-.21h0v0l-1.59-1.35h0v0c-.33-.27-.68-.54-1-.79h-.06v-.06c-.35-.25-.67-.52-1-.77h0v-.05c-1-.76-2.1-1.45-3.18-2.12h-.06v0c-.45-.27-.88-.52-1.33-.77h0v0c-1.58-.9-3.21-1.69-4.87-2.43h0v0c-.88-.37-1.75-.76-2.64-1.08h-.06a6,6,0,0,0-.69-.26h-.12v0c-.8-.27-1.61-.54-2.44-.77h0a8.68,8.68,0,0,0-.91-.25h-.16v-.06l-.86-.22h-.2v0c-1.21-.3-2.44-.56-3.68-.78h-.09v0c-.56-.1-1.13-.17-1.71-.25h-.19v0l-2.37-.25h-.64V394c-1.14-.07-2.32-.12-3.47-.12s-2.24.05-3.33.09V394h-.8l-2.46.25v0h-.12l-1.51.22v.05h-.28c-.93.16-1.82.34-2.71.53h-.06c-.35.07-.7.15-1,.25v0h-.1l-1,.25v0h-.05c-.9.25-1.8.5-2.69.8h0l-.8.27c-.44.14-.9.32-1.34.49v.06h-.12c-.88.35-1.76.7-2.6,1.08-.19.06-.35.17-.56.23v0h0c-.19.07-.32.15-.49.23v0h-.07l-.45.23v.05h-.08l-.44.22v0h-.12c-.13.08-.29.15-.44.25v0h0c-.8.42-1.61.88-2.39,1.36v0h0c-.73.42-1.45.86-2.15,1.34s-1.27.87-1.9,1.31v0h0c-.36.25-.7.52-1.06.77v0h0c-1.13.86-2.21,1.77-3.23,2.71-.1.08-.16.18-.25.26h0l-.26.22v0h-.05c-.61.6-1.23,1.24-1.83,1.86v.05h0l-.24.22V410h0l-.22.26v0h0c-.08.1-.18.17-.25.27-1,1-1.85,2.13-2.71,3.21v.06h0c-.28.35-.52.68-.77,1v.05h0c-.46.63-.9,1.25-1.34,1.89s-.9,1.43-1.34,2.15v0h0a26.67,26.67,0,0,0-1.35,2.39v.05h0a2.81,2.81,0,0,0-.25.49V422h0c-.07.15-.15.3-.22.47v.08H1646c-.07.14-.14.32-.22.47v.08h0c-.09.17-.15.32-.26.5v.06h0c-.46,1-.9,2.07-1.34,3.12v.14h0c-.27.72-.54,1.42-.77,2.15h0c-.11.28-.19.56-.27.8-.19.63-.38,1.25-.56,1.88v0c-.1.34-.17.67-.24,1v.1h0a6,6,0,0,0-.25,1v0c-.2.91-.38,1.82-.56,2.75v.24h-.05c-.07.52-.17,1-.22,1.55v.34h-.06c-.11.74-.17,1.51-.22,2.25v.74h0c-.07,1.09-.09,2.2-.09,3.3,0,139.14-.19,397.72-.19,536.73ZM307.72,848c0,1.32-.05,2.65-.16,3.94h0v.42c-.08.78-.17,1.53-.26,2.29h0v.21c-.08.48-.12,1-.23,1.44H307v.32c-.14.89-.32,1.78-.51,2.65h0v.08c-.08.35-.14.68-.25,1h0v.12c-.08.31-.18.64-.26,1h0v.06q-.24.91-.54,1.83a8.09,8.09,0,0,1-.28.83v0c-.26.71-.5,1.45-.76,2.15h0v.09c-.43,1.07-.87,2.12-1.36,3.17-.07.19-.17.35-.25.52h0v.07c-.07.16-.18.32-.26.5h0v0c-.07.17-.16.32-.24.5h0v0a4.68,4.68,0,0,0-.28.5v0c-.36.61-.67,1.26-1.05,1.85h0v.08c-.25.42-.52.85-.77,1.3h0v0c-.5.8-1,1.61-1.58,2.4h-.07v0c-.23.36-.5.72-.73,1h-.08v.08c-.26.33-.5.67-.77,1h-.05v.07c-.35.45-.7.88-1.08,1.3h0v0c-.77.91-1.59,1.8-2.45,2.69-.1.11-.17.17-.28.28s-.34.34-.51.52l-.28.28c-.88.85-1.77,1.65-2.7,2.44-.42.36-.89.72-1.33,1h0v0l-1,.8h0v0c-.36.28-.72.52-1.08.77-.52.4-1,.73-1.61,1.08h0v0c-.42.28-.85.52-1.24.8h-.11v0a51.08,51.08,0,0,1-6.2,3.19h0l-1.26.52h-.08v0c-.44.18-.9.35-1.35.51a7.27,7.27,0,0,0-.77.28h-.05v0c-.26.09-.5.16-.75.22h0v0c-.29.08-.51.19-.8.26h0c-.61.2-1.25.38-1.87.54h0c-.36.11-.7.18-1,.28h-.07c-1.33.32-2.67.6-4,.8h-.3v0a45.7,45.7,0,0,1-4.86.5h-1.13v0c-.55,0-1.1,0-1.66,0s-1.05,0-1.62,0v0h-1.16a45.76,45.76,0,0,1-4.82-.5v0h-.34c-.54-.07-1.06-.17-1.56-.27-.82-.15-1.62-.32-2.44-.52v0h-.06c-.33-.07-.69-.17-1-.26h-.07c-1.18-.33-2.32-.68-3.46-1.05v0h-.1c-.26-.07-.49-.19-.73-.25v0H239a11.86,11.86,0,0,1-1.29-.5v0h-.12a51.39,51.39,0,0,1-6.67-3.25v0h-.06c-.46-.25-.88-.52-1.34-.8v0h0c-.82-.5-1.62-1-2.4-1.58v-.06H227c-.35-.25-.7-.5-1-.75V889h-.11a54.78,54.78,0,0,1-4.51-3.79v0h0a2.61,2.61,0,0,1-.24-.23v0h-.06l-.22-.21v-.06h0c-.44-.44-.89-.87-1.29-1.33v-.05h0l-.23-.25v0h0a1.41,1.41,0,0,0-.25-.24c-1-1.14-2-2.29-3-3.49v0h0c-.28-.36-.53-.68-.78-1v0h0c-.28-.35-.52-.73-.78-1.07-.37-.52-.72-1.08-1.08-1.61v0c-.26-.43-.55-.87-.8-1.3v0h0c-.29-.47-.52-.91-.77-1.35-.48-.86-.92-1.71-1.36-2.6V870h-.06c-.08-.17-.14-.3-.2-.46v-.09h0a3.17,3.17,0,0,1-.24-.49v0h0c-.28-.6-.52-1.23-.77-1.85V867h0c-.18-.44-.36-.85-.52-1.33v0h0c-.09-.25-.16-.49-.25-.74v-.09h-.06c-.26-.79-.54-1.57-.76-2.39v-.06h0c-.09-.3-.18-.57-.25-.86v-.21H207c-.06-.26-.14-.52-.22-.79-.32-1.26-.56-2.51-.79-3.77v-.31h0c-.07-.47-.14-.95-.22-1.43v-.19h0c-.11-.7-.19-1.4-.26-2.09v-.08c-.15-1.58-.22-3.15-.22-4.76V579c0-1.52.08-3,.2-4.54h0v-.27c.07-.72.15-1.44.26-2.14h0v-.15c.07-.5.14-1,.22-1.47h0v-.25c.22-1.19.48-2.4.79-3.53h.06v-.23c.07-.29.13-.57.22-.87h0v-.15a8.78,8.78,0,0,0,.28-.95c.17-.54.32-1.07.52-1.61h0v-.11c.06-.24.16-.48.24-.72h0V562c.24-.72.51-1.43.79-2.13s.52-1.26.83-1.89c.07-.17.18-.33.26-.53h0v0c.08-.17.16-.32.24-.5h0v-.06c.07-.15.15-.34.23-.48h0v-.08c.07-.14.14-.32.22-.48h.07v-.08c.06-.14.17-.31.25-.46h0v0c.32-.63.69-1.25,1-1.87h.05v-.07c.11-.15.18-.31.3-.45l.49-.84h0v-.07c.49-.8,1-1.61,1.58-2.36h0v-.07c.26-.36.5-.69.76-1h.08v-.11c.25-.33.5-.67.77-1h0v-.06c.35-.44.7-.85,1.06-1.3h0v0a55.72,55.72,0,0,1,5.94-6h0v0c.89-.75,1.78-1.48,2.7-2.15h0a43.73,43.73,0,0,1,4.05-2.69h0v0a40.84,40.84,0,0,1,3.95-2.15h.13v-.06a3.49,3.49,0,0,1,.44-.2h.1v0a4,4,0,0,1,.47-.22h.08v0c1-.48,2.11-.92,3.19-1.33h.08c.22-.08.44-.18.67-.25h.15v-.06c1.07-.37,2.13-.72,3.24-1h0l1-.28h.1v0c.34-.11.69-.18,1-.26h.12v0c.8-.2,1.66-.39,2.48-.52h.22v-.06a11.67,11.67,0,0,1,1.46-.22h.21v0a54.62,54.62,0,0,1,6.47-.54h1.67a52,52,0,0,1,6.51.54v0h.16l1.46.25v0h.17c.86.13,1.7.32,2.54.52h.06l1,.24v0h.07c1.47.36,2.9.82,4.31,1.31v0h.1c.24.1.48.18.72.29h0c.44.16.88.33,1.34.52h0c.64.24,1.25.52,1.87.8h0c.17.07.33.18.52.24v0h.05l.51.22v.06H279l.45.23v0h.07c.14.07.3.16.45.22v.06h.08c.33.16.66.34,1,.55s.89.5,1.33.78v0h.08l1.26.79v0h.05c.8.51,1.62,1,2.41,1.59v0h0c.34.25.7.49,1.05.78v.05h.08c.35.25.66.52,1,.79v0h0c.54.42,1.06.86,1.59,1.32v0h.05a47.41,47.41,0,0,1,5.11,5.11v0h.07l.23.24v0h0c.44.52.89,1.07,1.33,1.62l.84,1.06v0h0c.27.35.51.72.8,1.08l1.08,1.59v0h0l.54.82.25.42v.11h.08c.18.28.32.53.48.8v0a52.24,52.24,0,0,1,3.51,7.26v.06h0a6.19,6.19,0,0,1,.27.69v.14h0q.88,2.49,1.55,5.1v.06a9.94,9.94,0,0,1,.25,1.08v0c.22.89.39,1.8.56,2.71v.28h0c.07.49.15,1,.23,1.49v.13h0c.1.79.18,1.57.26,2.35V575h0c.1,1.33.15,2.66.15,4V847.84l-.12.1Zm-205-134.41h0v0Zm0,0v.06c0,1,0,2-.1,3h-.06v.77c0,.85-.13,1.66-.24,2.5h0V720c-.09.5-.14,1-.22,1.5H102v.32c-.14.89-.32,1.8-.52,2.66h0v.11c-.06.32-.13.64-.23,1h0v.15a6.54,6.54,0,0,1-.25.94h0v.1c-.27.88-.52,1.75-.82,2.62h0v.07c-.07.26-.17.52-.24.76v0c-.25.71-.52,1.43-.8,2.12s-.53,1.29-.78,1.91v0c-.08.16-.19.35-.26.51h0v.06c-.07.18-.16.32-.22.5h-.06v.07l-.23.47h0V736c-.08.16-.14.29-.23.44h-.05v.08c-.42.8-.85,1.6-1.31,2.37h-.06V739a2.89,2.89,0,0,1-.27.44,7.78,7.78,0,0,1-.5.8h0v.08c-.52.79-1,1.58-1.62,2.35h0v.06c-.24.35-.51.68-.74,1H92.5v.08c-.25.33-.53.66-.79,1h0v0c-.43.56-.87,1.08-1.32,1.61h0v.05a53.58,53.58,0,0,1-5.11,5.11h0v0c-.52.46-1,.9-1.6,1.32h0v0c-.3.28-.67.52-1,.8h-.06v0c-.36.24-.71.54-1,.78h0v0c-.79.54-1.57,1.06-2.41,1.59h-.06v0c-.41.28-.84.52-1.28.77h-.08v0c-.63.36-1.24.69-1.87,1.06h0c-.16.11-.32.16-.5.28h0v0a3.8,3.8,0,0,0-.5.24h0v0c-.18.07-.33.17-.5.25H74v0c-.18.08-.35.18-.52.25h0c-1,.47-2.1,1-3.17,1.34h-.11v.06c-.71.27-1.42.52-2.16.77-.91.3-1.81.58-2.69.82h0c-.36.11-.68.17-1,.28h-.07v0c-.79.2-1.58.37-2.39.52h-.07l-1.47.27h-.16v0l-1.71.24h-.2v0c-.89.1-1.77.18-2.67.26h-.88v0c-.83,0-1.66.08-2.51.08H50.5c-.79,0-1.6,0-2.39-.05V764h-1c-.94,0-1.88-.14-2.82-.27h-.06c-.52-.06-1-.15-1.57-.22v0h-.3c-1.28-.21-2.54-.48-3.79-.79v0h-.16l-.9-.22v0h-.15c-.32-.08-.63-.19-.94-.28h0c-.82-.24-1.62-.5-2.42-.77v0h-.1l-.7-.26v0h0c-.89-.32-1.8-.69-2.68-1.07h0a52.69,52.69,0,0,1-4.87-2.44c-.46-.25-.9-.53-1.34-.81-.28-.16-.56-.32-.8-.49v0h-.08c-1.19-.77-2.34-1.58-3.45-2.44a42.14,42.14,0,0,1-3.52-3v0h0l-.26-.25v0h0a2.18,2.18,0,0,1-.21-.22v-.06h0c-.64-.59-1.27-1.22-1.86-1.85v0h0a1.71,1.71,0,0,1-.22-.25v0h0c-.09-.11-.19-.19-.25-.28-.95-1-1.85-2.09-2.73-3.23v0h0c-.29-.36-.52-.68-.78-1v-.05h0l-.76-1.07c-.19-.27-.39-.54-.55-.8v0c-.19-.28-.36-.56-.54-.83-.27-.45-.55-.87-.83-1.32v0h0c-.38-.62-.72-1.26-1.06-1.87v0c-.1-.17-.18-.32-.3-.5v0h0c-.07-.15-.17-.33-.25-.48v-.08h0c-.08-.14-.16-.32-.26-.46v-.07h0c-.07-.19-.17-.32-.25-.51v0h0c-.07-.18-.19-.35-.26-.52v0c-.49-1.05-.95-2.13-1.34-3.23v0h0a2.83,2.83,0,0,1-.24-.67v-.12H3c-.37-1.07-.72-2.15-1.05-3.22v0c-.09-.32-.17-.64-.28-1v-.14h0c-.08-.31-.17-.64-.24-1v-.13h0c-.2-.82-.34-1.65-.51-2.47v-.25H.77c-.07-.45-.15-.92-.23-1.39v-.25h0c-.08-.63-.16-1.25-.21-1.9A45.54,45.54,0,0,1,0,714v-.87a54.54,54.54,0,0,1,.51-6.8h0v-.18c.08-.51.16-1,.23-1.44h0v-.2c.14-.86.31-1.71.51-2.53v0c.07-.36.18-.71.26-1h0v0c.31-1.18.66-2.36,1.06-3.47h.06v-.13c.07-.22.19-.48.24-.69H3v-.08a43.9,43.9,0,0,1,2.16-5.09c.11-.17.19-.37.29-.54.42-.83.84-1.65,1.31-2.45h0v0c.25-.45.52-.88.8-1.3h0v0c.5-.83,1-1.62,1.59-2.4h.06v-.06c.24-.34.5-.69.76-1h.06v-.11l.76-1h.06v-.07q.53-.67,1-1.29h0v0c.76-.93,1.61-1.82,2.46-2.69a3.45,3.45,0,0,1,.26-.28,6.77,6.77,0,0,1,.56-.51,48.59,48.59,0,0,1,4.31-3.8c.36-.28.73-.54,1.08-.82h0c1-.76,2.1-1.47,3.17-2.16h.07v-.06a8.48,8.48,0,0,0,.8-.5c.62-.37,1.24-.72,1.9-1.08a4.11,4.11,0,0,0,.51-.27h0v0c.13-.06.31-.17.46-.25h.07v0c.17-.07.32-.17.5-.26h0v0c.18-.07.33-.17.5-.25h.06v0c.17,0,.35-.16.53-.23h0c1-.49,2.09-.95,3.18-1.35h.08v0c.22-.07.42-.16.66-.25h.17v0c1.06-.38,2.1-.73,3.17-1h.09v0l.89-.25h.19v0a32.7,32.7,0,0,1,3.4-.75h.14v0l1.4-.24h.22v0c.6-.11,1.21-.17,1.81-.25h.11c1.06-.12,2.13-.2,3.21-.25h1.13v-.05l1.3,0h1.62c.47,0,1,0,1.43,0v.05h1a45.89,45.89,0,0,1,5,.5v0h.37c.52.08,1,.17,1.55.28h0c.44.07.89.16,1.35.28s.72.16,1.08.24v0H64l1,.26v0h.08c1.18.32,2.32.66,3.45,1h.09c.27.08.52.2.74.27v0h.06c.45.15.86.32,1.31.52v0h.11a48.79,48.79,0,0,1,6.13,3v0h0c.45.25.87.51,1.33.77v.05h.06c1.1.67,2.15,1.37,3.19,2.13v0h0c.35.24.68.49,1,.76v.06h.08c.33.28.67.52,1,.8v0h0c.55.45,1.07.89,1.62,1.33a2.27,2.27,0,0,1,.28.26v0h.07a.9.9,0,0,0,.22.19v.08h.08c1.18,1.11,2.36,2.26,3.46,3.45v.06h.07l.2.24v.05h0l.22.24h0c.86,1,1.67,2,2.42,3s1.3,1.78,1.88,2.69v0h0l.52.8c.28.45.56.9.8,1.34v0h0c.48.81,1,1.62,1.36,2.41v0c.1.17.16.35.28.52v0a2.78,2.78,0,0,0,.28.51v0c.59,1.22,1.11,2.47,1.61,3.72v.07h0c.27.72.55,1.45.76,2.17s.57,1.77.84,2.69v0c.09.33.16.69.26,1v.11h0c.11.36.17.7.25,1.06v0c.2.9.38,1.82.55,2.74v.24h.06c.07.52.13,1.06.22,1.58v.08c.1.84.19,1.69.27,2.57v.7h0c.08,1,.11,2,.11,3.06v0Zm0,.07v0Zm410,263.86v1.39c0,1.38-.11,2.73-.26,4-.07.63-.15,1.28-.24,1.9h0v.23c-.07.48-.15.91-.22,1.4h-.05v.25c-.15.82-.33,1.63-.53,2.46h0v.11c-.09.32-.16.64-.26,1h0v.12c-.07.31-.17.64-.26,1v0c-.31,1.1-.66,2.17-1,3.21h-.07v.15c-.07.24-.16.45-.24.69h0v.07c-.39,1.07-.86,2.13-1.32,3.18h0v.05c-.07.14-.15.32-.21.47h-.07v.11a4.71,4.71,0,0,0-.22.45h0v.12c-.67,1.34-1.37,2.67-2.15,3.94h0v0a7.8,7.8,0,0,1-.5.77h-.06v.12c-.66,1.06-1.38,2.13-2.15,3.14s-1.39,1.83-2.15,2.73h0v0a52.06,52.06,0,0,1-5.95,5.93h0v0c-.44.35-.87.72-1.31,1.08h0v0c-.32.27-.67.53-1,.77h-.07v.08c-.36.24-.67.49-1,.74h0v.06c-.77.54-1.57,1.06-2.4,1.58h0v.05c-.42.28-.84.52-1.26.78h-.08v0l-1.87,1.06h0v0l-.47.25h-.07v0c-.16.08-.32.15-.48.25h-.08v0a2.77,2.77,0,0,0-.46.22h-.08v0c-.19.07-.32.16-.51.24h0c-.8.38-1.62.74-2.45,1.07s-1.39.56-2.11.8h-.06v0a6.44,6.44,0,0,1-.74.25h-.09v0l-1.62.52-.95.27H475v0c-.29.07-.58.14-.85.23h-.22v.06c-1.18.29-2.35.55-3.54.75h-.26v0l-1.48.24h-.16v0c-.7.11-1.43.18-2.12.24h-.06c-1.59.15-3.17.23-4.82.23s-3.14-.08-4.69-.23h-.17l-2-.23v0h-.27l-1.64-.24v0h-.12c-.85-.13-1.74-.32-2.59-.51v0h-.07l-1-.25v0h-.08c-.33-.11-.66-.16-1-.27-1.38-.37-2.73-.83-4.06-1.33v0h-.11l-.7-.26a49.83,49.83,0,0,1-6.79-3.26h0l-1.35-.78v0h0l-.79-.51v0h-.09c-.79-.52-1.58-1.05-2.36-1.63h0c-.34-.26-.72-.52-1.08-.79v0h0c-1.13-.85-2.21-1.74-3.25-2.69v0h0l-.26-.23v-.05h-.07l-.21-.19v-.08h-.06c-.93-.86-1.81-1.74-2.66-2.64v-.07h-.06l-.22-.22v-.07h-.05a2.55,2.55,0,0,0-.23-.24c-.55-.62-1.1-1.25-1.62-1.91-.26-.32-.55-.67-.79-1v-.08h-.06c-.25-.32-.5-.68-.79-1v-.08h0c-.26-.34-.5-.7-.74-1.06v0h0c-.37-.52-.73-1.07-1.07-1.59v0h0c-.28-.41-.56-.86-.8-1.29v-.06h0c-.53-.94-1.09-1.88-1.58-2.89v-.1h0c-.07-.16-.16-.3-.24-.45v-.11h0l-.23-.43v-.11h-.05c-.08-.17-.16-.32-.24-.5v-.07h0c-.07-.17-.17-.33-.25-.54-.38-.85-.76-1.72-1.08-2.6v-.12h0c-.28-.72-.53-1.43-.78-2.17h0c-.31-.9-.57-1.81-.8-2.7v0c-.11-.36-.16-.67-.28-1v-.06h0c-.2-.8-.36-1.58-.53-2.37v0c-.1-.48-.18-1-.25-1.47v-.16h0c-.09-.55-.16-1.11-.25-1.65v-.25h0c-.09-.8-.18-1.62-.25-2.45v-.8h-.06c0-1-.1-2-.1-3V449.52c0-.93,0-1.85.07-2.77h.07v-1c.05-.85.16-1.66.25-2.52h0V443c.07-.57.15-1.15.25-1.71h0v-.12c.06-.5.17-1,.26-1.49.15-.83.35-1.62.56-2.45.14-.64.31-1.27.49-1.88h.06v-.13c.3-1.08.64-2.1,1-3.15h0v-.16c.07-.22.18-.43.25-.65h0v0c.48-1.28,1-2.52,1.6-3.75h0v0a4.52,4.52,0,0,1,.25-.49h0v-.05c.08-.18.19-.35.25-.51h0v0a2.22,2.22,0,0,1,.28-.5v0c.31-.63.68-1.28,1.05-1.88h.05v-.08l.77-1.27h.05v-.07c.67-1.1,1.39-2.15,2.17-3.19v0c.28-.34.52-.72.8-1.07v0c.95-1.22,1.95-2.38,3-3.51l.25-.28h0v0a2,2,0,0,0,.24-.26h.06v-.06c.52-.54,1-1.06,1.59-1.58h.06v-.06l.24-.22h0v0a3.45,3.45,0,0,0,.28-.26c1.11-1.05,2.29-2,3.51-3h0v0c.36-.27.7-.55,1.05-.8h0v0c1-.74,2.08-1.46,3.16-2.15h.09v-.05c.27-.17.53-.31.79-.51h0c.77-.47,1.58-.9,2.4-1.33h.05v0a4.3,4.3,0,0,1,.48-.24h.08v-.06l.47-.22h.07v0l.48-.23h.06v0A3.24,3.24,0,0,0,440,403h0v0c1-.47,2.07-.92,3.14-1.35h.1v0c.73-.29,1.43-.52,2.15-.79h0c.27-.09.55-.17.79-.26.6-.21,1.22-.37,1.86-.54h.05a9.73,9.73,0,0,1,1-.27h.09c.36-.07.69-.16,1-.24h0c.9-.21,1.79-.38,2.69-.52h.28v-.06l1.53-.22h.12v0c.8-.11,1.62-.17,2.43-.26h.82v-.05c1.09-.08,2.22-.12,3.32-.12s2.32,0,3.46.12v.05h.7l2.3.22v.06h.27c.55.07,1.11.14,1.64.25v0H470a13.93,13.93,0,0,1,1.46.27c1.1.23,2.17.48,3.24.78v.06H475l.88.23v0h.09c.79.23,1.58.5,2.36.78v.05h.13c.23.08.46.15.7.25v0h.09a56.39,56.39,0,0,1,7.51,3.49v0h.05c.44.24.85.5,1.29.78v.05h.07c.74.45,1.43.9,2.09,1.35a12.32,12.32,0,0,1,1.08.77v.06h.08c.24.16.49.35.74.55l.27.19v.08h.09c.36.25.69.52,1,.76v0h0c.55.43,1.07.87,1.61,1.31v0h0c.07.08.15.12.22.2v.06h.1a48.74,48.74,0,0,1,4.53,4.56v0h0a1.33,1.33,0,0,0,.23.24v0h0l1.35,1.62c.26.35.54.7.79,1.05v0h0c.27.35.51.69.77,1.07v0c.57.79,1.1,1.59,1.62,2.42v0h0c.27.41.51.87.8,1.3v.05h0c.35.62.73,1.24,1.06,1.87v0h0l.25.5v.05h0c.09.16.19.34.26.48v.06h0a3,3,0,0,0,.25.47v.06h0c.09.18.16.33.26.5v.05h0c.07.17.16.35.25.56.27.61.55,1.24.8,1.86v0l.53,1.36c.1.24.16.47.28.72v.11h0a5.9,5.9,0,0,0,.23.67v.13h0c.42,1.13.74,2.3,1.06,3.48v0h0c.1.35.18.69.25,1v.05c.19.86.37,1.67.52,2.52v.17h0c.08.47.18,1,.22,1.46v.16h0a47.76,47.76,0,0,1,.54,6v1.38c0,149.34-.09,378.73-.09,528ZM717.76,317.16v792.75c0,.38,0,.72,0,1.09h-.06v1.21c-.06,1.14-.15,2.29-.28,3.41v0c-.07.63-.14,1.25-.24,1.87h0v.19c-.07.48-.14,1-.25,1.47h0v.12c-.24,1.15-.47,2.27-.77,3.4H716v.23c-.07.3-.15.58-.22.85h0v.13c-.18.59-.35,1.17-.55,1.76-.1.28-.18.55-.27.83-.16.44-.32.89-.51,1.34h-.06v.13a7,7,0,0,0-.24.68v0c-.26.61-.52,1.24-.8,1.86h0v.06c-.65,1.46-1.38,2.89-2.13,4.29h0v0c-.26.46-.49.9-.76,1.32h-.07v.08c-.27.42-.51.87-.79,1.3v0c-.6.93-1.23,1.82-1.89,2.69h0v.05c-.29.35-.52.7-.82,1.06h0v0c-.43.55-.87,1.08-1.33,1.62h0v0c-.79.93-1.61,1.8-2.45,2.68-.18.17-.35.36-.55.54-1,1-2,1.86-3,2.71h0v0c-.4.35-.84.72-1.28,1.06h-.07v.06c-.32.25-.65.53-1,.77H697v.06c-.36.26-.67.51-1,.77h-.08v0c-.77.56-1.55,1.07-2.36,1.61h-.07v0c-.43.28-.85.52-1.26.78h-.08v0c-.64.34-1.24.69-1.88,1h0v0a2.77,2.77,0,0,0-.48.26h0a3.2,3.2,0,0,0-.48.26h0a4.37,4.37,0,0,1-.48.25h0v0c-.18.08-.35.19-.53.26h0c-1,.47-2.06.93-3.14,1.35h-.12v0c-.44.17-.9.35-1.34.5h0c-.25.11-.49.17-.77.29h-.07v0c-.84.29-1.7.54-2.6.78h-.1v0c-.3.06-.6.16-.92.23h-.18v0l-.94.24h-.16c-.84.2-1.7.36-2.58.52H675v0c-.53.12-1.07.17-1.6.26h-.3v0c-.69.12-1.39.18-2.1.24h-.35v0c-1.39.12-2.79.17-4.24.17s-2.79,0-4.19-.17v0h-.4c-.69-.07-1.38-.12-2-.24v0h-.35c-.53-.08-1.06-.14-1.56-.26v0h-.19a12.53,12.53,0,0,1-1.44-.27h0c-.75-.14-1.46-.31-2.16-.5v0h-.22l-.88-.22v0h-.14l-1-.26c-.56-.19-1.09-.34-1.62-.52v0h-.11c-.25-.08-.47-.17-.72-.26v0h-.06c-.73-.26-1.42-.52-2.12-.8h0c-.62-.24-1.24-.51-1.87-.79h0a2.69,2.69,0,0,1-.51-.25v0h-.08l-.47-.23v0h-.1l-.45-.22v0h-.11l-.44-.24v-.06h-.1c-1-.49-1.94-1-2.89-1.58v0h0c-.72-.44-1.45-.9-2.15-1.36s-1.26-.85-1.89-1.32v0h0c-.36-.25-.7-.51-1.06-.81h0c-1.22-1-2.35-2-3.48-3a1.76,1.76,0,0,1-.28-.26h0l-.25-.23v0h-.06c-.45-.42-.89-.87-1.32-1.31v-.06h0l-.23-.24v0h0a1.54,1.54,0,0,0-.25-.26v0c-1-1.1-2-2.24-3-3.45v-.07h0q-.37-.48-.75-1v-.11h-.07c-.24-.36-.52-.68-.75-1v0h-.06c-.54-.8-1.06-1.61-1.58-2.41v0h0c-.27-.44-.52-.88-.8-1.34v0h0a51.76,51.76,0,0,1-3.76-8.09v-.07h0c-.08-.22-.17-.45-.25-.7v-.12h-.06c-.27-.8-.52-1.62-.77-2.44-.1-.32-.17-.66-.27-1V1123h0c-.07-.33-.17-.62-.25-.94V1122h0c-.06-.35-.16-.68-.23-1v0c-.1-.41-.18-.84-.25-1.27v-.1h0c-.09-.48-.17-1-.22-1.46v-.17h0c-.11-.57-.19-1.17-.27-1.77V1116h0c-.1-1-.2-1.91-.24-2.88v-1.19h-.06c0-.61,0-1.27,0-1.93V317.24c0-.67,0-1.33,0-2h.06v-1.12c0-1,.14-2,.25-2.94v-.08c.08-.52.15-1.05.21-1.57h.09v-.39c.06-.51.17-1,.26-1.53h0c.15-.83.33-1.63.52-2.43h0v-.08c.07-.35.18-.67.25-1h0V304c.25-.89.51-1.78.79-2.66h0v-.08c.08-.25.17-.5.26-.74h0v-.05a6.81,6.81,0,0,1,.26-.76h0c.18-.45.33-.9.51-1.36h0v-.07c.18-.42.34-.86.52-1.27v0a50.14,50.14,0,0,1,2.42-4.87h0v-.06c.25-.44.49-.87.76-1.3h0v-.07c.28-.42.52-.85.8-1.26v0c.6-.93,1.22-1.82,1.86-2.71h0v0c.27-.35.52-.7.8-1v0c.43-.55.89-1.07,1.33-1.62h0v0a58.15,58.15,0,0,1,5.65-5.67h.06v0c.53-.44,1-.89,1.59-1.32h0v0l1-.79h0v0c.35-.27.72-.52,1.08-.77h0c.53-.38,1-.72,1.6-1.08h0v0l.81-.53c.13-.1.27-.17.42-.28h.11v-.08c.28-.14.52-.31.8-.46h0a51.25,51.25,0,0,1,8.06-3.8h.09v0l.67-.23h.16v-.05c.79-.28,1.57-.52,2.4-.77h0l.89-.26h.19v-.06l.85-.21h.22v-.05c1.23-.3,2.48-.56,3.72-.78h.35v-.06l1.47-.22h.16v0c.85-.1,1.65-.2,2.5-.26h1v0c.95-.06,1.87-.08,2.81-.08s1.93,0,2.87.08v0h1c.85.07,1.71.15,2.56.26v0h.12l1.54.22v.06h.29c.9.14,1.79.32,2.68.52h.12l1,.23v0h.17l.9.22v0h.13c.32.08.62.2.95.28h0c.84.25,1.62.5,2.42.77v.05h.1l.7.25v0h.06c.43.14.86.33,1.29.5v.05h.09a53.6,53.6,0,0,1,6.15,3v0h0l1.34.77v.05h.06l1.3.84c.28.16.55.35.82.54l1.08.74v.06h.06a4.31,4.31,0,0,1,.73.54l.27.19v.07h.1c.81.59,1.61,1.26,2.35,1.9a3.23,3.23,0,0,0,.27.23v.05h.06a53.6,53.6,0,0,1,4.84,4.81v.07h0a.75.75,0,0,1,.2.26v0h0c.45.52.89,1.08,1.3,1.6v0h0l.8,1v.07h0c.25.35.53.7.77,1v.05h0c.54.77,1.07,1.58,1.59,2.38V290h.06c.17.27.31.51.5.79s.17.29.27.44v.11h0c.56.94,1.07,1.9,1.58,2.87v.12H712c.08.15.16.29.22.43v.09h.07c.08.15.13.3.22.47v.09h.05c.07.18.16.31.23.49V296h0c.47,1,.93,2.1,1.33,3.19v.08h0c.07.22.17.42.25.64v.17h0c.38,1.05.73,2.1,1,3.19v.09h0a9.32,9.32,0,0,1,.27.9v.17h0c.07.3.16.63.23.93v.17h0c.08.35.15.67.22,1v0h0c.1.43.17.86.24,1.31V308h0c.11.5.18,1,.25,1.49v.4H717a50.52,50.52,0,0,1,.48,5.11v1.16h0c0,.36,0,.77,0,1.16l.25-.19Zm717.69,0v792.75c0,1.36,0,2.74.16,4.11h.05v.44c.09.78.15,1.52.25,2.27h0v.15l.24,1.5h0v.26c.22,1.3.51,2.55.8,3.82v0c.15.6.32,1.24.52,1.86h0v.11c.2.8.5,1.57.75,2.34h.07v.16c.07.22.16.45.22.66h0v.11a50.89,50.89,0,0,0,3.53,7.5v0c.25.44.52.88.8,1.33h0v0c.69,1.09,1.41,2.16,2.15,3.21h0v.06c.25.35.53.7.78,1.06h0v0c.27.34.54.69.83,1,.52.65,1,1.28,1.58,1.9h0v0c.08.07.15.18.22.25h0v0a51.15,51.15,0,0,0,3.75,3.76h.06v0c.06.08.16.15.23.23h0v0c.62.54,1.26,1.06,1.9,1.58.34.28.67.56,1,.8h.06v0c.35.27.69.53,1,.77h0v0c1,.76,2.12,1.47,3.22,2.14h0v0c.44.27.87.51,1.32.77h0v0a52.55,52.55,0,0,0,7.51,3.53h.1v0c1,.39,2.11.72,3.14,1.05h.11v0c.62.17,1.23.35,1.84.49h.07c.36.11.71.17,1.07.25h0c.89.22,1.78.38,2.68.55h.31v0c.47.08,1,.14,1.45.23h.16v0l2.23.25h.48v0c1.35.09,2.73.17,4.1.17s2.92-.08,4.34-.2v0h.24c.74-.08,1.49-.15,2.21-.26v0h.19c.48-.07,1-.12,1.42-.22v0h.33a26.31,26.31,0,0,0,2.67-.55h0c.34-.07.7-.17,1-.25h.06l1-.28c1.37-.37,2.73-.81,4.06-1.29v0h.12l.69-.28h0c.44-.17.9-.35,1.34-.55a52.61,52.61,0,0,0,5.42-2.7v0h.07c.43-.25.85-.49,1.3-.77v0h.06c1.1-.67,2.14-1.36,3.2-2.11v0h.07c.35-.25.67-.5,1-.74v-.07h.09c.33-.26.66-.52,1-.8v0h0c.54-.45,1-.86,1.58-1.33v0h0a1.26,1.26,0,0,1,.24-.22v-.07h.06l.22-.18V1148h.11a52.28,52.28,0,0,0,4-4v0h.06c.08-.08.14-.17.22-.26v0h0l1.35-1.59v0h0c.29-.32.52-.67.81-1v-.08h.06c.25-.32.5-.66.75-1v0h.05c.26-.36.53-.73.77-1.08a8.83,8.83,0,0,1,.56-.8c.28-.41.55-.85.8-1.27v-.07h0c.27-.42.52-.85.76-1.3v-.07h0a51.93,51.93,0,0,0,3.22-6.73v-.06h0a5.84,5.84,0,0,0,.24-.66v-.16h0c.52-1.33.95-2.67,1.33-4v-.06h0a9.54,9.54,0,0,0,.22-1v-.13h0c.08-.31.19-.63.27-1v-.1h0c.2-.85.38-1.69.52-2.57v-.14h0c.1-.52.17-1.06.25-1.6v-.33h.06c.11-.67.16-1.31.22-2v-.17h0c.12-1.52.23-3.06.23-4.61V317.2c0-1.57-.08-3.14-.23-4.69v-.11c-.08-.69-.13-1.36-.24-2.06h0v-.25c-.09-.55-.18-1.09-.25-1.63v-.08c-.14-.89-.33-1.78-.55-2.65v-.06c-.07-.34-.18-.7-.26-1.05h0v0c-.37-1.45-.8-2.89-1.3-4.3h0v-.15c-.08-.22-.15-.44-.23-.65h-.07v-.09a23.54,23.54,0,0,0-1.06-2.62h0v0a47.71,47.71,0,0,0-2.45-4.84c-.28-.44-.52-.89-.77-1.36h0c-.18-.28-.33-.52-.49-.8H1530v-.07c-.54-.8-1.08-1.6-1.63-2.38-.26-.34-.53-.72-.8-1.07h0v0c-.85-1.11-1.74-2.19-2.69-3.24h0v0l-.22-.25h-.06v-.06l-.19-.22h-.08v-.07c-.85-.93-1.74-1.81-2.64-2.64h-.08v-.06a1.94,1.94,0,0,0-.21-.2h-.06v-.05l-.26-.22h0v0c-.64-.55-1.24-1.09-1.91-1.61a9,9,0,0,0-1-.8H1518v-.05c-.32-.25-.66-.5-1-.77H1517v0c-.36-.26-.7-.5-1.08-.74h0v0c-.53-.37-1.08-.72-1.6-1.07h0v0c-.42-.28-.89-.55-1.31-.8h-.06v0c-.44-.27-.89-.51-1.33-.76l-1.52-.81h-.11v-.06l-.44-.22h-.11v-.06c-.15-.07-.31-.14-.45-.22h-.1v0c-.14-.08-.32-.16-.47-.23h-.06v0l-.52-.24h0c-.61-.28-1.24-.56-1.87-.8l-.71-.27H1505v0c-.45-.17-.9-.32-1.34-.5-.27-.09-.53-.17-.81-.28h0c-.88-.3-1.8-.56-2.69-.8h0c-.31-.09-.66-.16-1-.25h-.07v0a9.94,9.94,0,0,0-1.08-.25h0l-1.28-.28h-.07v0c-.47-.1-1-.17-1.4-.25H1495v0c-.55-.08-1.08-.16-1.63-.22h-.26v0c-.79-.11-1.59-.17-2.42-.25h-.84V266c-1-.06-2-.09-3-.09s-2,0-3,.09v.05h-.82c-.82.08-1.62.14-2.42.25v0h-.28c-.54.08-1.09.14-1.63.25v0h-.19a13.55,13.55,0,0,0-1.44.27h-.06c-.8.15-1.58.31-2.38.52h-.06c-.36.09-.71.17-1,.26-.91.26-1.84.52-2.71.81s-1.44.5-2.17.76v.05h-.09c-1.08.4-2.13.85-3.18,1.34v0h0l-.49.23v0h-.07l-.49.22v.06h0a3.51,3.51,0,0,0-.48.22v.06h-.08a3.13,3.13,0,0,0-.47.25h-.06l-2.4,1.34v0h0c-.47.27-.89.54-1.33.83-.27.16-.55.35-.81.52h0c-.28.17-.53.35-.8.55a10.39,10.39,0,0,0-1.07.77v.06h-.06l-1,.77v.06h0c-1.1.84-2.17,1.74-3.22,2.68v0h0l-.25.22v.05h-.06l-.23.23v0h0c-.72.67-1.42,1.39-2.13,2.09v.08h0a2.28,2.28,0,0,0-.22.22v0h-.07c-.08.08-.14.17-.22.25v0h0c-.64.7-1.28,1.42-1.88,2.18-.27.34-.55.66-.8,1v.07h0c-.27.32-.52.68-.79,1V287h-.06c-.24.36-.49.69-.74,1.08v0h0c-.39.53-.74,1.05-1.07,1.59v0h0c-.26.43-.53.85-.8,1.28v.07h0c-.28.47-.51.91-.77,1.35v0c-.47.84-.92,1.68-1.33,2.57v.12h-.08a4.69,4.69,0,0,1-.21.46v.1h0a5,5,0,0,0-.22.47v.08h0c-.28.6-.56,1.22-.81,1.85v.07h0c-.16.45-.34.87-.51,1.31v0c-.1.25-.18.48-.29.74v.1h0c-.26.79-.55,1.6-.77,2.41v0c-.09.29-.17.61-.28.91v.17h0c-.08.27-.16.57-.22.85V305h-.07c-.18.72-.35,1.43-.5,2.16v0c-.11.47-.19.94-.28,1.42v.2h0c-.1.52-.17,1-.22,1.54v.36h0c-.11.66-.17,1.37-.22,2.06v.37h0c-.1,1.37-.17,2.73-.17,4.14l-.13,0Z"/></g></g></svg>